<?xml version="1.0" encoding="UTF-8"?><svg id="Livello_1" xmlns="http://www.w3.org/2000/svg" viewBox="0 0 82.13 85.01"><defs><style>.cls-1{fill:#fff;stroke-width:0px;}</style></defs><g id="_929_Arrow_Eject_Multimedia_Down"><path class="cls-1" d="M15.02,17.1c0-2.24-1.76-3.99-3.99-3.99s-3.99,1.76-3.99,3.99,1.76,3.99,3.99,3.99,3.99-1.92,3.99-3.99Z"/><path class="cls-1" d="M42.02,78.93c-1.6,0-3.04,1.28-3.04,3.04,0,1.6,1.28,3.03,3.04,3.03s3.04-1.28,3.04-3.03-1.28-3.04-3.04-3.04Z"/><polygon class="cls-1" points="76.06 49.21 44.1 5.75 12.14 49.21 76.06 49.21"/><path class="cls-1" d="M76.06,17.1c2.72,0,4.95-2.24,4.95-4.95s-2.24-4.95-4.95-4.95-4.95,2.24-4.95,4.95c-.16,2.72,2.24,4.95,4.95,4.95Z"/><rect class="cls-1" x="11.03" y="58.96" width="65.83" height="10.07"/><path class="cls-1" d="M19.17.96c1.15,0,2.08.93,2.08,2.08s-.93,2.08-2.08,2.08-2.08-.93-2.08-2.08.93-2.08,2.08-2.08Z"/><path class="cls-1" d="M58,0c1.15,0,2.08.93,2.08,2.08s-.93,2.08-2.08,2.08-2.08-.93-2.08-2.08.93-2.08,2.08-2.08Z"/><path class="cls-1" d="M80.05,31.96c1.15,0,2.08.93,2.08,2.08s-.93,2.08-2.08,2.08-2.08-.93-2.08-2.08.93-2.08,2.08-2.08Z"/><path class="cls-1" d="M2.08,31.96c1.15,0,2.08.93,2.08,2.08s-.93,2.08-2.08,2.08-2.08-.93-2.08-2.08.93-2.08,2.08-2.08Z"/><path class="cls-1" d="M20.13,75.9c1.15,0,2.08.93,2.08,2.08s-.93,2.08-2.08,2.08-2.08-.93-2.08-2.08.93-2.08,2.08-2.08Z"/><path class="cls-1" d="M62,77.81c1.15,0,2.08.93,2.08,2.08s-.93,2.08-2.08,2.08-2.08-.93-2.08-2.08.93-2.08,2.08-2.08Z"/></g></svg>