<?xml version="1.0" encoding="UTF-8"?><svg id="Livello_1" xmlns="http://www.w3.org/2000/svg" viewBox="0 0 82.13 85.01"><defs><style>.cls-1{fill:#fff;stroke-width:0px;}</style></defs><g id="_928_Arrow_Eject_Multimedia_Down"><path class="cls-1" d="M67.11,67.91c0,2.24,1.76,3.99,3.99,3.99s3.99-1.76,3.99-3.99-1.76-3.99-3.99-3.99-3.99,1.92-3.99,3.99Z"/><path class="cls-1" d="M40.11,6.07c1.6,0,3.03-1.28,3.03-3.04,0-1.6-1.28-3.04-3.03-3.04-1.6,0-3.04,1.28-3.04,3.04,0,1.6,1.28,3.04,3.04,3.04Z"/><polygon class="cls-1" points="6.07 35.79 38.03 79.25 69.99 35.79 6.07 35.79"/><path class="cls-1" d="M6.07,67.91c-2.72,0-4.95,2.24-4.95,4.95s2.24,4.95,4.95,4.95,4.95-2.24,4.95-4.95-2.24-4.95-4.95-4.95Z"/><rect class="cls-1" x="5.11" y="15.98" width="65.83" height="10.07"/><path class="cls-1" d="M62.96,79.89c1.15,0,2.08.93,2.08,2.08s-.93,2.08-2.08,2.08-2.08-.93-2.08-2.08.93-2.08,2.08-2.08Z"/><path class="cls-1" d="M24.13,80.85c1.15,0,2.08.93,2.08,2.08s-.93,2.08-2.08,2.08-2.08-.93-2.08-2.08.93-2.08,2.08-2.08Z"/><path class="cls-1" d="M2.08,48.89c1.15,0,2.08.93,2.08,2.08s-.93,2.08-2.08,2.08-2.08-.93-2.08-2.08.93-2.08,2.08-2.08Z"/><path class="cls-1" d="M80.05,48.89c1.15,0,2.08.93,2.08,2.08s-.93,2.08-2.08,2.08-2.08-.93-2.08-2.08.93-2.08,2.08-2.08Z"/><path class="cls-1" d="M62,4.95c1.15,0,2.08.93,2.08,2.08s-.93,2.08-2.08,2.08-2.08-.93-2.08-2.08.93-2.08,2.08-2.08Z"/><path class="cls-1" d="M20.13,3.04c1.15,0,2.08.93,2.08,2.08s-.93,2.08-2.08,2.08-2.08-.93-2.08-2.08.93-2.08,2.08-2.08Z"/></g></svg>