<?xml version="1.0" encoding="UTF-8"?><svg id="Livello_1" xmlns="http://www.w3.org/2000/svg" viewBox="0 0 83.89 87.88"><defs><style>.cls-1{fill:#fff;stroke-width:0px;}</style></defs><g id="_943_Arrow_Left_Right"><path class="cls-1" d="M29.08,4.95c0,2.72-2.24,4.95-4.95,4.95s-4.95-2.24-4.95-4.95S21.41,0,24.13,0s4.95,2.24,4.95,4.95Z"/><path class="cls-1" d="M65.03,84.85c0-1.6,1.28-3.04,3.04-3.04,1.6,0,3.04,1.28,3.04,3.04,0,1.6-1.28,3.04-3.04,3.04s-3.04-1.28-3.04-3.04Z"/><path class="cls-1" d="M81.97,33.08c1.06,0,1.92.86,1.92,1.92s-.86,1.92-1.92,1.92-1.92-.86-1.92-1.92.86-1.92,1.92-1.92Z"/><path class="cls-1" d="M80.05,74.78c1.15,0,2.08.93,2.08,2.08s-.93,2.08-2.08,2.08-2.08-.93-2.08-2.08.93-2.08,2.08-2.08Z"/><path class="cls-1" d="M48.09,78.77c1.15,0,2.08.93,2.08,2.08s-.93,2.08-2.08,2.08-2.08-.93-2.08-2.08.93-2.08,2.08-2.08Z"/><path class="cls-1" d="M40.11,6.87c1.15,0,2.08.93,2.08,2.08s-.93,2.08-2.08,2.08-2.08-.93-2.08-2.08.93-2.08,2.08-2.08Z"/><path class="cls-1" d="M4.15,10.87c1.15,0,2.08.93,2.08,2.08s-.93,2.08-2.08,2.08-2.08-.93-2.08-2.08.93-2.08,2.08-2.08Z"/><path class="cls-1" d="M46.02,40.91c1.15,0,2.08.93,2.08,2.08s-.93,2.08-2.08,2.08-2.08-.93-2.08-2.08.93-2.08,2.08-2.08Z"/><path class="cls-1" d="M2.08,52.89c1.15,0,2.08.93,2.08,2.08s-.93,2.08-2.08,2.08-2.08-.93-2.08-2.08.93-2.08,2.08-2.08Z"/><rect class="cls-1" x="8.92" y="51.42" width="64.98" height="17.55"/><rect class="cls-1" x="8.92" y="18.59" width="64.98" height="17.55"/></g></svg>