<?xml version="1.0" encoding="UTF-8"?><svg id="Livello_1" xmlns="http://www.w3.org/2000/svg" viewBox="0 0 84.21 87.88"><defs><style>.cls-1{fill:#fff;stroke-width:0px;}</style></defs><g id="_943_Arrow_Left_Right"><path class="cls-1" d="M29.4,4.95c0,2.72-2.24,4.95-4.95,4.95s-4.95-2.24-4.95-4.95S21.73,0,24.45,0s4.95,2.24,4.95,4.95Z"/><path class="cls-1" d="M29.56,28.92v35.95c0,.48.48.96.96.96h9.59l-19.65,21.57L.8,65.99h9.75c.48,0,.96-.48.96-.96v-27.64c0-5.43-2.88-10.39-7.51-13.1-1.44-.8-2.72-1.6-3.99-2.4h22.53c3.84.16,7.03,3.2,7.03,7.03Z"/><path class="cls-1" d="M65.35,84.85c0-1.6,1.28-3.04,3.04-3.04,1.6,0,3.04,1.28,3.04,3.04,0,1.6-1.28,3.04-3.04,3.04s-3.04-1.28-3.04-3.04Z"/><path class="cls-1" d="M62.32.48l19.65,21.41h-9.75c-.48,0-.96.48-.96.96v27.48c0,5.43,2.88,10.39,7.51,13.1,1.44.8,2.72,1.6,3.99,2.4h-22.69c-3.84,0-7.03-3.2-7.03-7.03V23.01c0-.48-.48-.96-.96-.96h-9.59L62.32.48Z"/><path class="cls-1" d="M82.29,33.08c1.06,0,1.92.86,1.92,1.92s-.86,1.92-1.92,1.92-1.92-.86-1.92-1.92.86-1.92,1.92-1.92Z"/><path class="cls-1" d="M80.37,74.78c1.15,0,2.08.93,2.08,2.08s-.93,2.08-2.08,2.08-2.08-.93-2.08-2.08.93-2.08,2.08-2.08Z"/><path class="cls-1" d="M48.41,78.77c1.15,0,2.08.93,2.08,2.08s-.93,2.08-2.08,2.08-2.08-.93-2.08-2.08.93-2.08,2.08-2.08Z"/><path class="cls-1" d="M40.43,6.87c1.15,0,2.08.93,2.08,2.08s-.93,2.08-2.08,2.08-2.08-.93-2.08-2.08.93-2.08,2.08-2.08Z"/><path class="cls-1" d="M4.47,10.87c1.15,0,2.08.93,2.08,2.08s-.93,2.08-2.08,2.08-2.08-.93-2.08-2.08.93-2.08,2.08-2.08Z"/><path class="cls-1" d="M46.34,40.91c1.15,0,2.08.93,2.08,2.08s-.93,2.08-2.08,2.08-2.08-.93-2.08-2.08.93-2.08,2.08-2.08Z"/><path class="cls-1" d="M2.4,52.89c1.15,0,2.08.93,2.08,2.08s-.93,2.08-2.08,2.08-2.08-.93-2.08-2.08.93-2.08,2.08-2.08Z"/></g></svg>